HIERARCHY
ROOT Hips
{
	OFFSET 0 0 0
	CHANNELS 6 Xposition Yposition Zposition Yrotation Xrotation Zrotation
	JOINT Spine
	{
		OFFSET -0 8.08628 -2.5775
		CHANNELS 3 Yrotation Xrotation Zrotation
		JOINT Spine1
		{
			OFFSET -0 8.17342 0
			CHANNELS 3 Yrotation Xrotation Zrotation
			JOINT Spine2
			{
				OFFSET -0 8.17342 0
				CHANNELS 3 Yrotation Xrotation Zrotation
				JOINT Spine3
				{
					OFFSET -0 8.17342 0
					CHANNELS 3 Yrotation Xrotation Zrotation
					JOINT Neck
					{
						OFFSET -0 13.9808 3.5775
						CHANNELS 3 Yrotation Xrotation Zrotation
						JOINT Head
						{
							OFFSET -0 10.1078 0
							CHANNELS 3 Yrotation Xrotation Zrotation
							End Site
							{
								OFFSET 0 15 0
							}
						}
					}
					JOINT LeftShoulder
					{
						OFFSET 1.68464 1.97436 3.36928
						CHANNELS 3 Yrotation Xrotation Zrotation
						JOINT LeftArm
						{
							OFFSET 16.4919 0 0
							CHANNELS 3 Yrotation Xrotation Zrotation
							JOINT LeftForeArm
							{
								OFFSET 23.9853 0 0
								CHANNELS 3 Yrotation Xrotation Zrotation
								JOINT LeftHand
								{
									OFFSET 23.7665 0 0
									CHANNELS 3 Yrotation Xrotation Zrotation
									JOINT LeftHandThumb1
									{
										OFFSET 4.73892 0 0.95067
										CHANNELS 3 Yrotation Xrotation Zrotation
										JOINT LeftHandThumb2
										{
											OFFSET 3 0 1
											CHANNELS 3 Yrotation Xrotation Zrotation
											JOINT LeftHandThumb3
											{
												OFFSET 2.1 0 0
												CHANNELS 3 Yrotation Xrotation Zrotation
												JOINT LeftHandThumb4
												{
													OFFSET 1.305 0 0
													CHANNELS 3 Yrotation Xrotation Zrotation
													End Site
													{
														OFFSET -0 0 0
													}
												}
											}
										}
									}
									JOINT LeftHandIndex1
									{
										OFFSET 9.00175 0 2.03831
										CHANNELS 3 Yrotation Xrotation Zrotation
										JOINT LeftHandIndex2
										{
											OFFSET 3.5 0 0
											CHANNELS 3 Yrotation Xrotation Zrotation
											JOINT LeftHandIndex3
											{
												OFFSET 2.45 0 0
												CHANNELS 3 Yrotation Xrotation Zrotation
												JOINT LeftHandIndex4
												{
													OFFSET 1.5225 0 0
													CHANNELS 3 Yrotation Xrotation Zrotation
													End Site
													{
														OFFSET -0 0 0
													}
												}
											}
										}
									}
									JOINT LeftHandMiddle1
									{
										OFFSET 8.95394 0 0.459792
										CHANNELS 3 Yrotation Xrotation Zrotation
										JOINT LeftHandMiddle2
										{
											OFFSET 4.6 0 0
											CHANNELS 3 Yrotation Xrotation Zrotation
											JOINT LeftHandMiddle3
											{
												OFFSET 3.22 0 0
												CHANNELS 3 Yrotation Xrotation Zrotation
												JOINT LeftHandMiddle4
												{
													OFFSET 2.001 0 0
													CHANNELS 3 Yrotation Xrotation Zrotation
													End Site
													{
														OFFSET -0 0 0
													}
												}
											}
										}
									}
									JOINT LeftHandRing1
									{
										OFFSET 8.60612 0 -1.11872
										CHANNELS 3 Yrotation Xrotation Zrotation
										JOINT LeftHandRing2
										{
											OFFSET 3.75 0 0
											CHANNELS 3 Yrotation Xrotation Zrotation
											JOINT LeftHandRing3
											{
												OFFSET 2.625 0 0
												CHANNELS 3 Yrotation Xrotation Zrotation
												JOINT LeftHandRing4
												{
													OFFSET 1.63125 0 0
													CHANNELS 3 Yrotation Xrotation Zrotation
													End Site
													{
														OFFSET -0 0 0
													}
												}
											}
										}
									}
									JOINT LeftHandPinky1
									{
										OFFSET 7.9583 0 -2.69724
										CHANNELS 3 Yrotation Xrotation Zrotation
										JOINT LeftHandPinky2
										{
											OFFSET 2.875 0 0
											CHANNELS 3 Yrotation Xrotation Zrotation
											JOINT LeftHandPinky3
											{
												OFFSET 2.0125 0 0
												CHANNELS 3 Yrotation Xrotation Zrotation
												JOINT LeftHandPinky4
												{
													OFFSET 1.25062 0 0
													CHANNELS 3 Yrotation Xrotation Zrotation
													End Site
													{
														OFFSET -0 0 0
													}
												}
											}
										}
									}
								}
							}
						}
					}
					JOINT RightShoulder
					{
						OFFSET -1.68464 1.97436 3.36928
						CHANNELS 3 Yrotation Xrotation Zrotation
						JOINT RightArm
						{
							OFFSET -16.4919 0 0
							CHANNELS 3 Yrotation Xrotation Zrotation
							JOINT RightForeArm
							{
								OFFSET -23.9853 0 0
								CHANNELS 3 Yrotation Xrotation Zrotation
								JOINT RightHand
								{
									OFFSET -23.7665 0 0
									CHANNELS 3 Yrotation Xrotation Zrotation
									JOINT RightHandThumb1
									{
										OFFSET -4.49364 0 2.24179
										CHANNELS 3 Yrotation Xrotation Zrotation
										JOINT RightHandThumb2
										{
											OFFSET -3 0 1
											CHANNELS 3 Yrotation Xrotation Zrotation
											JOINT RightHandThumb3
											{
												OFFSET -2.1 0 0
												CHANNELS 3 Yrotation Xrotation Zrotation
												JOINT RightHandThumb4
												{
													OFFSET -1.305 0 0
													CHANNELS 3 Yrotation Xrotation Zrotation
													End Site
													{
														OFFSET -0 0 0
													}
												}
											}
										}
									}
									JOINT RightHandIndex1
									{
										OFFSET -8.61172 0 3.12336
										CHANNELS 3 Yrotation Xrotation Zrotation
										JOINT RightHandIndex2
										{
											OFFSET -3.5 0 0
											CHANNELS 3 Yrotation Xrotation Zrotation
											JOINT RightHandIndex3
											{
												OFFSET -2.45 0 0
												CHANNELS 3 Yrotation Xrotation Zrotation
												JOINT RightHandIndex4
												{
													OFFSET -1.5225 0 0
													CHANNELS 3 Yrotation Xrotation Zrotation
													End Site
													{
														OFFSET -0 0 0
													}
												}
											}
										}
									}
									JOINT RightHandMiddle1
									{
										OFFSET -8.49707 0 1.18186
										CHANNELS 3 Yrotation Xrotation Zrotation
										JOINT RightHandMiddle2
										{
											OFFSET -4.6 0 0
											CHANNELS 3 Yrotation Xrotation Zrotation
											JOINT RightHandMiddle3
											{
												OFFSET -3.22 0 0
												CHANNELS 3 Yrotation Xrotation Zrotation
												JOINT RightHandMiddle4
												{
													OFFSET -2.001 0 0
													CHANNELS 3 Yrotation Xrotation Zrotation
													End Site
													{
														OFFSET -0 0 0
													}
												}
											}
										}
									}
									JOINT RightHandRing1
									{
										OFFSET -8.08241 0 -0.759647
										CHANNELS 3 Yrotation Xrotation Zrotation
										JOINT RightHandRing2
										{
											OFFSET -3.75 0 0
											CHANNELS 3 Yrotation Xrotation Zrotation
											JOINT RightHandRing3
											{
												OFFSET -2.625 0 0
												CHANNELS 3 Yrotation Xrotation Zrotation
												JOINT RightHandRing4
												{
													OFFSET -1.63125 0 0
													CHANNELS 3 Yrotation Xrotation Zrotation
													End Site
													{
														OFFSET -0 0 0
													}
												}
											}
										}
									}
									JOINT RightHandPinky1
									{
										OFFSET -7.36776 0 -2.70115
										CHANNELS 3 Yrotation Xrotation Zrotation
										JOINT RightHandPinky2
										{
											OFFSET -2.875 0 0
											CHANNELS 3 Yrotation Xrotation Zrotation
											JOINT RightHandPinky3
											{
												OFFSET -2.0125 0 0
												CHANNELS 3 Yrotation Xrotation Zrotation
												JOINT RightHandPinky4
												{
													OFFSET -1.25062 0 0
													CHANNELS 3 Yrotation Xrotation Zrotation
													End Site
													{
														OFFSET -0 0 0
													}
												}
											}
										}
									}
								}
							}
						}
					}
				}
			}
		}
	}
	JOINT LeftUpLeg
	{
		OFFSET 10.1078 -3.36928 3
		CHANNELS 3 Yrotation Xrotation Zrotation
		JOINT LeftLeg
		{
			OFFSET -0 -43.6821 2.3585
			CHANNELS 3 Yrotation Xrotation Zrotation
			JOINT LeftFoot
			{
				OFFSET -0 -36.6228 -2.3585
				CHANNELS 3 Yrotation Xrotation Zrotation
				JOINT LeftToeBase
				{
					OFFSET -0 -9.28843 9.36804
					CHANNELS 3 Yrotation Xrotation Zrotation
					End Site
					{
						OFFSET 0 0 5
					}
				}
			}
		}
	}
	JOINT RightUpLeg
	{
		OFFSET -10.1078 -3.36928 3
		CHANNELS 3 Yrotation Xrotation Zrotation
		JOINT RightLeg
		{
			OFFSET -0 -43.6821 2.3585
			CHANNELS 3 Yrotation Xrotation Zrotation
			JOINT RightFoot
			{
				OFFSET -0 -36.6228 -2.3585
				CHANNELS 3 Yrotation Xrotation Zrotation
				JOINT RightToeBase
				{
					OFFSET -0 -9.28843 9.36804
					CHANNELS 3 Yrotation Xrotation Zrotation
					End Site
					{
						OFFSET 0 0 5
					}
				}
			}
		}
	}
}
MOTION
Frames: 4
Frame Time: 0.00833333
-13.599628 86.838910 -47.882614 -70.084810 13.375649 1.467761 2.196666 3.632712 -1.400970 1.487747 3.416764 -0.800995 1.029759 3.756920 0.168524 0.746088 3.471481 -0.048210 42.333553 -14.198410 -42.226215 11.091024 -8.786184 18.692923 -17.248848 -18.250666 -6.101441 -64.116811 -51.063429 -25.312674 -12.324888 3.292299 3.105885 74.824932 -36.522387 -18.552947 0.000000 -8.786335 0.000000 -74.257652 -19.786220 59.997352 180.000000 74.173509 180.000000 -8.099487 55.203782 0.457469 0.000000 -0.172309 0.000000 30.746900 28.597023 12.309314 36.597921 32.120348 15.887409 -25.326003 -53.775417 -18.576552 0.000001 -0.000007 12.500004 0.000001 -0.000007 12.500004 -0.000004 0.000003 10.000005 -0.000000 0.000000 5.000006 0.000346 -0.000102 -24.968128 0.000346 -0.000102 -24.968128 0.000216 -0.000200 -19.974516 0.000069 -0.000124 -9.987258 0.001550 -0.000488 -6.170818 0.001550 -0.000488 -6.170818 0.001199 -0.000518 -4.936665 0.000573 -0.000317 -2.468330 0.000000 -0.000000 0.000000 -49.123568 28.743155 -90.522590 54.165484 63.256846 -151.153521 -161.876328 9.646064 -55.722008 -0.000094 0.000042 5.557752 -0.000094 0.000042 5.557752 -0.000072 0.000024 4.446197 -0.000037 0.000011 2.223097 -166.438369 -0.019534 -179.835714 3.099520 19.577996 -10.806460 3.249978 22.552506 -12.437175 50.872014 -41.517555 -35.711210 -0.003100 0.001772 34.090363 -0.003100 0.001772 34.090363 -0.002840 -0.000197 27.272294 -0.001215 -0.000743 13.636127 -0.001839 0.001051 33.197282 -0.001839 0.001051 33.197282 -0.001691 -0.000110 26.557818 -0.000735 -0.000414 13.278913 -0.000002 0.000007 -12.499998 -0.000002 0.000007 -12.499998 0.000008 -0.000011 -10.000001 -0.000006 0.000005 -4.999998 26.850656 -25.882983 -16.788161 0.000000 40.507850 0.000000 23.976257 -22.339675 -3.221510 0.000000 -8.821430 0.000000 -73.154110 -20.885813 59.872739 180.000000 74.346915 180.000000 -9.955914 55.971126 0.824217 0.000000 -0.431909 0.000000
-13.604803 86.727313 -47.879733 -70.100247 13.352851 1.501137 1.994878 3.596196 -1.767989 1.202498 3.460958 -1.008351 0.748045 3.610171 0.050634 0.500755 3.339653 -0.141665 42.333553 -14.198410 -42.226215 11.091024 -8.786184 18.692923 -16.336193 -18.190742 -6.173635 -65.383766 -50.074352 -24.388565 -12.032221 2.195987 3.453258 74.880179 -36.232815 -18.005707 0.000000 -8.786765 0.000000 -74.449458 -19.533603 59.963459 180.000000 74.149230 180.000000 -8.146466 55.129497 0.334785 0.000000 -0.204655 0.000000 30.746900 28.597023 12.309314 36.597921 32.120348 15.887409 -25.326003 -53.775417 -18.576552 0.000001 -0.000007 12.500004 0.000001 -0.000007 12.500004 -0.000004 0.000003 10.000005 -0.000000 0.000000 5.000006 0.000346 -0.000102 -24.968128 0.000346 -0.000102 -24.968128 0.000216 -0.000200 -19.974516 0.000069 -0.000124 -9.987258 0.001550 -0.000488 -6.170818 0.001550 -0.000488 -6.170818 0.001199 -0.000518 -4.936665 0.000573 -0.000317 -2.468330 0.000000 -0.000000 0.000000 -49.123568 28.743155 -90.522590 54.165484 63.256846 -151.153521 -161.876328 9.646064 -55.722008 -0.000094 0.000042 5.557752 -0.000094 0.000042 5.557752 -0.000072 0.000024 4.446197 -0.000037 0.000011 2.223097 -166.438369 -0.019534 -179.835714 3.099520 19.577996 -10.806460 3.249978 22.552506 -12.437175 50.872014 -41.517555 -35.711210 -0.003100 0.001772 34.090363 -0.003100 0.001772 34.090363 -0.002840 -0.000197 27.272294 -0.001215 -0.000743 13.636127 -0.001839 0.001051 33.197282 -0.001839 0.001051 33.197282 -0.001691 -0.000110 26.557818 -0.000735 -0.000414 13.278913 -0.000002 0.000007 -12.499998 -0.000002 0.000007 -12.499998 0.000008 -0.000011 -10.000001 -0.000006 0.000005 -4.999998 27.101405 -25.949284 -16.872607 0.000000 40.885147 0.000000 23.865656 -22.546135 -3.231626 0.000000 -8.821430 0.000000 -73.154110 -20.885813 59.872739 180.000000 74.346915 180.000000 -9.955914 55.971126 0.824217 0.000000 -0.431909 0.000000
-13.617494 86.623431 -47.874249 -70.141937 13.372694 1.497900 2.006543 3.599963 -1.790693 1.125505 3.445380 -1.019163 0.691216 3.521134 -0.062030 0.437029 3.176443 -0.247999 42.333553 -14.198410 -42.226215 11.091024 -8.786184 18.692923 -16.180581 -18.129155 -6.160027 -65.371710 -50.145949 -24.429264 -12.174267 2.007690 3.487080 75.262094 -37.175348 -20.272946 0.000000 -8.782028 0.000000 -74.633478 -19.281844 60.022320 180.000000 74.140327 180.000000 -8.109565 55.007076 0.176853 0.000000 -0.048185 0.000000 31.544871 29.118080 12.614209 37.590044 32.673261 16.331695 -28.451045 -56.333793 -17.098448 0.000003 -0.000000 12.499997 0.000003 -0.000000 12.499997 -0.000002 0.000003 10.000003 0.000002 0.000000 5.000000 0.000711 -0.000110 -24.767534 0.000711 -0.000110 -24.767534 0.000480 -0.000316 -19.814025 0.000164 -0.000232 -9.907009 -0.002915 0.000323 -7.217832 -0.002915 0.000323 -7.217832 -0.002275 0.000550 -5.774249 -0.001111 0.000394 -2.887127 0.000000 -0.000000 0.000000 -49.123568 28.743155 -90.522590 54.165484 63.256846 -151.153521 -161.876328 9.646064 -55.722008 0.000483 -0.000055 5.717004 0.000483 -0.000055 5.717004 0.000383 -0.000005 4.573604 0.000190 0.000003 2.286805 -166.438445 -0.019534 -179.835715 2.549336 20.743032 -11.182201 2.577348 23.882958 -12.902644 50.151826 -41.852934 -34.906894 0.013077 -0.003602 32.041682 0.013077 -0.003602 32.041682 0.010370 0.003167 25.633347 0.003970 0.003684 12.816675 0.002417 -0.000586 32.775401 0.002417 -0.000586 32.775401 0.001868 0.000640 26.220316 0.000689 0.000704 13.110170 0.000009 -0.000002 -12.499995 0.000009 -0.000002 -12.499995 0.000000 0.000008 -10.000003 -0.000004 -0.000002 -4.999998 27.325840 -26.069751 -16.933293 0.000000 41.260787 0.000000 23.772402 -22.781026 -3.276942 0.000000 -8.821430 0.000000 -73.154110 -20.885813 59.872739 180.000000 74.346915 180.000000 -9.955914 55.971126 0.824217 0.000000 -0.431909 0.000000
-13.628259 86.512036 -47.865952 -70.180102 13.382748 1.528237 1.991046 3.619758 -1.805183 1.007115 3.414215 -1.216327 0.363293 3.431545 -0.415090 -0.004542 3.033778 -0.541727 42.333553 -14.198410 -42.226215 11.091024 -8.786184 18.692923 -15.399521 -17.930515 -5.694130 -65.936707 -49.839349 -24.078446 -12.145665 1.489663 3.634516 75.389451 -36.998423 -19.907105 0.000000 -8.780355 0.000000 -74.801036 -19.058290 60.044094 180.000000 74.132964 180.000000 -8.116593 54.894598 0.099097 0.000000 -0.037412 0.000000 31.544871 29.118080 12.614209 37.590044 32.673261 16.331695 -28.451045 -56.333793 -17.098448 0.000003 -0.000000 12.499997 0.000003 -0.000000 12.499997 -0.000002 0.000003 10.000003 0.000002 0.000000 5.000000 0.000711 -0.000110 -24.767534 0.000711 -0.000110 -24.767534 0.000480 -0.000316 -19.814025 0.000164 -0.000232 -9.907009 -0.002915 0.000323 -7.217832 -0.002915 0.000323 -7.217832 -0.002275 0.000550 -5.774249 -0.001111 0.000394 -2.887127 0.000000 -0.000000 0.000000 -49.123568 28.743155 -90.522590 54.165484 63.256846 -151.153521 -161.876328 9.646064 -55.722008 0.000483 -0.000055 5.717004 0.000483 -0.000055 5.717004 0.000383 -0.000005 4.573604 0.000190 0.000003 2.286805 -166.438445 -0.019534 -179.835715 2.549336 20.743032 -11.182201 2.577348 23.882958 -12.902644 50.151826 -41.852934 -34.906894 0.013077 -0.003602 32.041682 0.013077 -0.003602 32.041682 0.010370 0.003167 25.633347 0.003970 0.003684 12.816675 0.002417 -0.000586 32.775401 0.002417 -0.000586 32.775401 0.001868 0.000640 26.220316 0.000689 0.000704 13.110170 0.000009 -0.000002 -12.499995 0.000009 -0.000002 -12.499995 0.000000 0.000008 -10.000003 -0.000004 -0.000002 -4.999998 27.523606 -26.181318 -17.019311 0.000000 41.643585 0.000000 23.708412 -22.981624 -3.333949 0.000000 -8.821430 0.000000 -73.154110 -20.885813 59.872739 180.000000 74.346915 180.000000 -9.955914 55.971126 0.824217 0.000000 -0.431909 0.000000
